<svg xmlns="http://www.w3.org/2000/svg" xmlns:xlink="http://www.w3.org/1999/xlink" width="1000" zoomAndPan="magnify" viewBox="0 0 1125 1124.99995" height="1000" preserveAspectRatio="xMidYMid meet" version="1.0"><defs><g/><clipPath id="3038ad48d9"><path d="M 74.460938 18 L 1051.113281 18 L 1051.113281 1108 L 74.460938 1108 Z M 74.460938 18 " clip-rule="nonzero"/></clipPath><clipPath id="ff8a545b01"><path d="M 205.632812 164 L 920.738281 164 L 920.738281 959 L 205.632812 959 Z M 205.632812 164 " clip-rule="nonzero"/></clipPath></defs><g clip-path="url(#3038ad48d9)"><path fill="#ff914d" d="M 992.539062 879.128906 L 806.960938 986.332031 L 621.386719 1093.535156 C 589.042969 1112.222656 536.53125 1112.222656 504.1875 1093.535156 L 133.03125 879.128906 C 100.691406 860.441406 74.433594 814.929688 74.433594 777.566406 L 74.433594 348.742188 C 74.433594 311.378906 100.691406 265.867188 133.03125 247.179688 L 504.1875 32.773438 C 536.53125 14.085938 589.042969 14.085938 621.386719 32.773438 L 806.960938 139.976562 L 992.539062 247.179688 C 1024.882812 265.867188 1051.140625 311.378906 1051.140625 348.742188 L 1051.140625 777.566406 C 1051.140625 814.929688 1024.882812 860.441406 992.539062 879.128906 Z M 992.539062 879.128906 " fill-opacity="1" fill-rule="nonzero"/></g><g fill="#ff914d" fill-opacity="1"><g transform="translate(422.08418, 708.161846)"><g><path d="M 25.625 -256.296875 L 135.84375 -256.296875 C 176.113281 -256.296875 208.878906 -244.457031 234.140625 -220.78125 C 259.410156 -197.101562 272.046875 -166.226562 272.046875 -128.15625 C 272.046875 -90.3125 259.226562 -59.488281 233.59375 -35.6875 C 207.96875 -11.894531 174.53125 0 133.28125 0 L 25.625 0 Z M 90.796875 -204.3125 L 90.796875 -51.984375 L 137.296875 -51.984375 C 157.316406 -51.984375 173.734375 -59 186.546875 -73.03125 C 199.359375 -87.070312 205.765625 -105.320312 205.765625 -127.78125 C 205.765625 -150.238281 199.050781 -168.609375 185.625 -182.890625 C 172.207031 -197.171875 155.125 -204.3125 134.375 -204.3125 Z M 90.796875 -204.3125 "/></g></g></g><g clip-path="url(#ff8a545b01)"><path fill="#172738" d="M 877.851562 792.03125 L 741.972656 870.175781 L 606.09375 948.316406 C 582.410156 961.941406 543.960938 961.941406 520.28125 948.316406 L 384.398438 870.175781 L 248.519531 792.03125 C 224.839844 778.410156 205.613281 745.234375 205.613281 718 L 205.613281 405.417969 C 205.613281 378.179688 224.839844 345.007812 248.519531 331.382812 L 384.398438 253.242188 L 520.28125 175.097656 C 543.960938 161.476562 582.410156 161.476562 606.09375 175.097656 L 741.972656 253.242188 L 877.851562 331.382812 C 901.535156 345.007812 920.757812 378.179688 920.757812 405.417969 L 920.757812 718 C 920.757812 745.234375 901.535156 778.410156 877.851562 792.03125 Z M 877.851562 792.03125 " fill-opacity="1" fill-rule="nonzero"/></g><g fill="#14a09d" fill-opacity="1"><g transform="translate(340.260312, 763.795231)"><g><path d="M 343.46875 0 C 387.917969 0 424.285156 -36.367188 424.285156 -80.816406 L 424.285156 -323.265625 C 424.285156 -367.714844 387.917969 -404.082031 343.46875 -404.082031 L 20.203125 -404.082031 L 20.203125 0 Z M 101.019531 -323.265625 L 343.46875 -323.265625 L 343.46875 -80.816406 L 101.019531 -80.816406 Z M 101.019531 -323.265625 "/></g></g></g></svg>
