<svg xmlns="http://www.w3.org/2000/svg" xmlns:xlink="http://www.w3.org/1999/xlink" width="500" zoomAndPan="magnify" viewBox="0 0 375 374.999991" height="500" preserveAspectRatio="xMidYMid meet" version="1.0"><defs><g/><clipPath id="id1"><path d="M 29.507812 29.507812 L 345.308594 29.507812 L 345.308594 345.308594 L 29.507812 345.308594 Z M 29.507812 29.507812 " clip-rule="nonzero"/></clipPath></defs><path fill="#ff914d" d="M 203.800781 138.222656 L 203.800781 171.015625 L 236.597656 171.015625 L 236.597656 203.816406 L 203.800781 203.816406 L 203.800781 236.605469 L 171.015625 236.605469 L 171.015625 203.816406 L 138.222656 203.816406 L 138.222656 171.015625 L 171.015625 171.015625 L 171.015625 138.222656 Z M 203.800781 138.222656 " fill-opacity="1" fill-rule="nonzero"/><g clip-path="url(#id1)"><path fill="#ff914d" d="M 187.414062 29.507812 C 100.203125 29.507812 29.507812 100.203125 29.507812 187.414062 C 29.507812 274.628906 100.203125 345.324219 187.414062 345.324219 C 274.628906 345.324219 345.324219 274.628906 345.324219 187.414062 C 345.324219 100.203125 274.628906 29.507812 187.414062 29.507812 Z M 278.367188 232.890625 L 187.414062 293.523438 L 96.464844 232.890625 L 96.464844 141.941406 L 187.414062 81.304688 L 278.367188 141.941406 Z M 278.367188 232.890625 " fill-opacity="1" fill-rule="nonzero"/></g><path fill="#000000" d="M 188.582031 81.820312 C 130.328125 81.820312 83.101562 129.042969 83.101562 187.300781 C 83.101562 245.554688 130.328125 292.78125 188.582031 292.78125 C 246.835938 292.78125 294.0625 245.554688 294.0625 187.300781 C 294.0625 129.042969 246.835938 81.820312 188.582031 81.820312 " fill-opacity="1" fill-rule="nonzero"/><g fill="#14a09d" fill-opacity="1"><g transform="translate(137.221614, 232.888376)"><g><path d="M 12.546875 -95.46875 L 51.6875 -95.46875 C 65.957031 -95.46875 77.75 -90.960938 87.0625 -81.953125 C 96.382812 -72.953125 101.046875 -61.539062 101.046875 -47.71875 C 101.046875 -33.90625 96.363281 -22.5 87 -13.5 C 77.632812 -4.5 65.726562 0 51.28125 0 L 12.546875 0 Z M 28.640625 -81 L 28.640625 -14.453125 L 52.09375 -14.453125 C 61.457031 -14.453125 69.253906 -17.566406 75.484375 -23.796875 C 81.710938 -30.023438 84.828125 -37.957031 84.828125 -47.59375 C 84.828125 -57.226562 81.617188 -65.203125 75.203125 -71.515625 C 68.796875 -77.835938 60.863281 -81 51.40625 -81 Z M 28.640625 -81 "/></g></g></g></svg>