<svg xmlns="http://www.w3.org/2000/svg" xmlns:xlink="http://www.w3.org/1999/xlink" width="500" zoomAndPan="magnify" viewBox="0 0 375 374.999991" height="500" preserveAspectRatio="xMidYMid meet" version="1.0"><defs><g/><clipPath id="id1"><path d="M 89.339844 45.695312 L 274.589844 45.695312 L 274.589844 230.945312 L 89.339844 230.945312 Z M 89.339844 45.695312 " clip-rule="nonzero"/></clipPath></defs><g fill="rgb(7.839966%, 62.748718%, 61.569214%)" fill-opacity="1"><g transform="translate(66.672975, 272.438493)"><g><path d="M 1.953125 -19.59375 L 10.390625 -19.59375 C 13.472656 -19.59375 15.976562 -18.6875 17.90625 -16.875 C 19.832031 -15.070312 20.796875 -12.710938 20.796875 -9.796875 C 20.796875 -6.898438 19.816406 -4.539062 17.859375 -2.71875 C 15.898438 -0.90625 13.34375 0 10.1875 0 L 1.953125 0 Z M 6.9375 -15.625 L 6.9375 -3.96875 L 10.5 -3.96875 C 12.03125 -3.96875 13.285156 -4.503906 14.265625 -5.578125 C 15.242188 -6.660156 15.734375 -8.054688 15.734375 -9.765625 C 15.734375 -11.484375 15.21875 -12.890625 14.1875 -13.984375 C 13.164062 -15.078125 11.863281 -15.625 10.28125 -15.625 Z M 6.9375 -15.625 "/></g></g></g><g fill="rgb(7.839966%, 62.748718%, 61.569214%)" fill-opacity="1"><g transform="translate(99.346038, 272.438493)"><g><path d="M 17.296875 -15.6875 L 6.9375 -15.6875 L 6.9375 -11.78125 L 16.296875 -11.78125 L 16.296875 -7.875 L 6.9375 -7.875 L 6.9375 -3.921875 L 17.609375 -3.921875 L 17.609375 0 L 1.953125 0 L 1.953125 -19.59375 L 17.296875 -19.59375 Z M 17.296875 -15.6875 "/></g></g></g><g fill="rgb(7.839966%, 62.748718%, 61.569214%)" fill-opacity="1"><g transform="translate(129.415456, 272.438493)"><g><path d="M 11.140625 -19.765625 C 12.597656 -19.765625 14.03125 -19.460938 15.4375 -18.859375 C 16.851562 -18.265625 18.054688 -17.46875 19.046875 -16.46875 L 16.15625 -13.046875 C 15.519531 -13.828125 14.757812 -14.445312 13.875 -14.90625 C 12.988281 -15.363281 12.109375 -15.59375 11.234375 -15.59375 C 9.679688 -15.59375 8.378906 -15.046875 7.328125 -13.953125 C 6.285156 -12.859375 5.765625 -11.507812 5.765625 -9.90625 C 5.765625 -8.269531 6.285156 -6.898438 7.328125 -5.796875 C 8.378906 -4.691406 9.679688 -4.140625 11.234375 -4.140625 C 12.046875 -4.140625 12.894531 -4.34375 13.78125 -4.75 C 14.675781 -5.164062 15.46875 -5.726562 16.15625 -6.4375 L 19.0625 -3.359375 C 18 -2.273438 16.742188 -1.40625 15.296875 -0.75 C 13.847656 -0.101562 12.40625 0.21875 10.96875 0.21875 C 8.019531 0.21875 5.566406 -0.738281 3.609375 -2.65625 C 1.648438 -4.582031 0.671875 -6.984375 0.671875 -9.859375 C 0.671875 -12.671875 1.664062 -15.023438 3.65625 -16.921875 C 5.65625 -18.816406 8.148438 -19.765625 11.140625 -19.765625 Z M 11.140625 -19.765625 "/></g></g></g><g fill="rgb(7.839966%, 62.748718%, 61.569214%)" fill-opacity="1"><g transform="translate(159.988803, 272.438493)"><g><path d="M 14.984375 -3.609375 L 6.40625 -3.609375 L 4.984375 0 L -0.140625 0 L 8.3125 -19.59375 L 13.4375 -19.59375 L 21.703125 0 L 16.375 0 Z M 13.53125 -7.390625 L 10.71875 -14.640625 L 7.875 -7.390625 Z M 13.53125 -7.390625 "/></g></g></g><g fill="rgb(7.839966%, 62.748718%, 61.569214%)" fill-opacity="1"><g transform="translate(192.745854, 272.438493)"><g><path d="M 6.9375 -4.171875 L 15.265625 -4.171875 L 15.265625 0 L 1.953125 0 L 1.953125 -19.59375 L 6.9375 -19.59375 Z M 6.9375 -4.171875 "/></g></g></g><g fill="rgb(7.839966%, 62.748718%, 61.569214%)" fill-opacity="1"><g transform="translate(219.623709, 272.438493)"><g><path d="M 6.9375 0 L 1.953125 0 L 1.953125 -19.59375 L 6.9375 -19.59375 Z M 6.9375 0 "/></g></g></g><g fill="rgb(100%, 56.858826%, 30.198669%)" fill-opacity="1"><g transform="translate(239.723749, 272.438493)"><g><path d="M 1.703125 -3.796875 C 2.140625 -4.234375 2.703125 -4.453125 3.390625 -4.453125 C 4.078125 -4.453125 4.640625 -4.234375 5.078125 -3.796875 C 5.515625 -3.367188 5.734375 -2.8125 5.734375 -2.125 C 5.734375 -1.4375 5.515625 -0.875 5.078125 -0.4375 C 4.640625 0 4.078125 0.21875 3.390625 0.21875 C 2.703125 0.21875 2.140625 0 1.703125 -0.4375 C 1.273438 -0.875 1.0625 -1.4375 1.0625 -2.125 C 1.0625 -2.8125 1.273438 -3.367188 1.703125 -3.796875 Z M 1.703125 -3.796875 "/></g></g></g><g fill="rgb(7.839966%, 62.748718%, 61.569214%)" fill-opacity="1"><g transform="translate(257.723747, 272.438493)"><g><path d="M 6.9375 0 L 1.953125 0 L 1.953125 -19.59375 L 6.9375 -19.59375 Z M 6.9375 0 "/></g></g></g><g fill="rgb(7.839966%, 62.748718%, 61.569214%)" fill-opacity="1"><g transform="translate(277.82652, 272.438493)"><g><path d="M 11.25 -19.765625 C 14.289062 -19.765625 16.820312 -18.816406 18.84375 -16.921875 C 20.863281 -15.023438 21.875 -12.660156 21.875 -9.828125 C 21.875 -6.972656 20.859375 -4.582031 18.828125 -2.65625 C 16.804688 -0.738281 14.28125 0.21875 11.25 0.21875 C 8.226562 0.21875 5.707031 -0.734375 3.6875 -2.640625 C 1.675781 -4.554688 0.671875 -6.953125 0.671875 -9.828125 C 0.671875 -12.679688 1.675781 -15.050781 3.6875 -16.9375 C 5.707031 -18.820312 8.226562 -19.765625 11.25 -19.765625 Z M 11.3125 -15.59375 C 9.78125 -15.59375 8.472656 -15.035156 7.390625 -13.921875 C 6.304688 -12.816406 5.765625 -11.441406 5.765625 -9.796875 C 5.765625 -8.160156 6.3125 -6.773438 7.40625 -5.640625 C 8.5 -4.515625 9.800781 -3.953125 11.3125 -3.953125 C 12.820312 -3.953125 14.101562 -4.515625 15.15625 -5.640625 C 16.21875 -6.773438 16.75 -8.160156 16.75 -9.796875 C 16.75 -11.441406 16.21875 -12.816406 15.15625 -13.921875 C 14.101562 -15.035156 12.820312 -15.59375 11.3125 -15.59375 Z M 11.3125 -15.59375 "/></g></g></g><path fill="rgb(100%, 56.858826%, 30.198669%)" d="M 191.578125 109.46875 L 191.578125 128.703125 L 210.820312 128.703125 L 210.820312 147.945312 L 191.578125 147.945312 L 191.578125 167.179688 L 172.347656 167.179688 L 172.347656 147.945312 L 153.113281 147.945312 L 153.113281 128.703125 L 172.347656 128.703125 L 172.347656 109.46875 Z M 191.578125 109.46875 " fill-opacity="1" fill-rule="nonzero"/><g clip-path="url(#id1)"><path fill="rgb(100%, 56.858826%, 30.198669%)" d="M 181.96875 45.695312 C 130.808594 45.695312 89.339844 87.164062 89.339844 138.324219 C 89.339844 189.484375 130.808594 230.953125 181.96875 230.953125 C 233.125 230.953125 274.597656 189.484375 274.597656 138.324219 C 274.597656 87.164062 233.125 45.695312 181.96875 45.695312 Z M 235.320312 165 L 181.96875 200.566406 L 128.617188 165 L 128.617188 111.648438 L 181.96875 76.078125 L 235.320312 111.648438 Z M 235.320312 165 " fill-opacity="1" fill-rule="nonzero"/></g><path fill="rgb(0%, 0%, 0%)" d="M 182.652344 76.382812 C 148.480469 76.382812 120.777344 104.082031 120.777344 138.257812 C 120.777344 172.429688 148.480469 200.132812 182.652344 200.132812 C 216.824219 200.132812 244.527344 172.429688 244.527344 138.257812 C 244.527344 104.082031 216.824219 76.382812 182.652344 76.382812 " fill-opacity="1" fill-rule="nonzero"/><g fill="rgb(7.839966%, 62.748718%, 61.569214%)" fill-opacity="1"><g transform="translate(152.523575, 164.998612)"><g><path d="M 7.359375 -56 L 30.3125 -56 C 38.6875 -56 45.609375 -53.359375 51.078125 -48.078125 C 56.546875 -42.796875 59.28125 -36.101562 59.28125 -28 C 59.28125 -19.894531 56.53125 -13.203125 51.03125 -7.921875 C 45.539062 -2.640625 38.554688 0 30.078125 0 L 7.359375 0 Z M 16.796875 -47.515625 L 16.796875 -8.484375 L 30.5625 -8.484375 C 36.050781 -8.484375 40.625 -10.304688 44.28125 -13.953125 C 47.9375 -17.609375 49.765625 -22.265625 49.765625 -27.921875 C 49.765625 -33.578125 47.882812 -38.253906 44.125 -41.953125 C 40.363281 -45.660156 35.707031 -47.515625 30.15625 -47.515625 Z M 16.796875 -47.515625 "/></g></g></g></svg>